# xmcd
#
# Track frame offsets: 
#        150
#        15727
#        38857
#        53090
#        68330
#        99369
#        115815
#        142273
#        175395
#        192150
#        208856
#        227032
#        247490
#        279251
#
# Disc length: 3953 seconds
#
# Revision: 0
# Processed by: cddbd v1.5PL3 Copyright (c) Steve Scherf et al.
# Submitted via: ExactAudioCopy v0.90b4
#
DISCID=ca0f6f0e
DTITLE=Cuby and Blizzards - Ballads
DYEAR=2003
DGENRE=Blues
TTITLE0=Window of my eyes
TTITLE1=Seasons come and seasons go
TTITLE2=Everytime
TTITLE3=Thursday night
TTITLE4=Somebody will know someday
TTITLE5=Sometimes
TTITLE6=The sky is crying
TTITLE7=Time passed me by
TTITLE8=You don't know
TTITLE9=So many roads
TTITLE10=Crying tears
TTITLE11=No shoes
TTITLE12=Go down sunshine
TTITLE13=The big bell
EXTD=
EXTT0=
EXTT1=
EXTT2=
EXTT3=
EXTT4=
EXTT5=
EXTT6=
EXTT7=
EXTT8=
EXTT9=
EXTT10=
EXTT11=
EXTT12=
EXTT13=
PLAYORDER=
